<svg width="138" height="144" viewBox="0 0 138 144" fill="none" xmlns="http://www.w3.org/2000/svg">
<path d="M76.6342 36.3268C76.4696 36.2416 76.2793 36.2199 76.0997 36.266C75.9201 36.3121 75.7638 36.4226 75.6609 36.5765L74.1115 38.8294L71.504 42.5974C71.4274 42.7094 71.3207 42.7977 71.1962 42.8521C71.0717 42.9066 70.9343 42.925 70.7998 42.9053C70.6872 42.8908 70.5799 42.8489 70.4873 42.7833C70.3393 42.683 70.2334 42.5319 70.1897 42.3589C70.146 42.1859 70.1675 42.0029 70.2501 41.8446L72.321 38.8407L73.3622 37.3387C73.3809 37.3127 73.3973 37.285 73.4111 37.2561C73.511 37.0903 73.5407 36.8917 73.4937 36.704C73.4468 36.5164 73.327 36.355 73.1607 36.2554C72.9944 36.1558 72.7953 36.1262 72.6071 36.173C72.4189 36.2198 72.2571 36.3393 72.1572 36.5051L70.9919 38.1948L70.5212 38.8763L68.9925 41.0936C68.9785 41.1134 68.966 41.1341 68.9548 41.1555L67.7894 42.8452C67.7125 42.9574 67.6055 43.0459 67.4808 43.1006C67.356 43.1554 67.2184 43.1742 67.0834 43.155C66.9708 43.1393 66.8636 43.0968 66.7709 43.0311C66.6917 42.9769 66.624 42.9077 66.5717 42.8274C66.5194 42.7471 66.4835 42.6573 66.466 42.5631C66.4485 42.469 66.4498 42.3723 66.4698 42.2786C66.4898 42.185 66.5282 42.0962 66.5826 42.0173L66.7709 41.7451L68.7176 38.9214L69.7399 37.4401L69.9282 37.1679C70.0332 37.0084 70.0716 36.8143 70.035 36.627C69.9984 36.4398 69.8897 36.2742 69.7323 36.1658C69.5749 36.0574 69.3812 36.0147 69.1926 36.0469C69.004 36.0791 68.8356 36.1836 68.7232 36.338L66.914 38.9664L63.3821 43.3184C60.3792 41.9704 58.1294 40.2187 56.6158 38.0315L60.1514 32.6094C60.2575 32.4471 60.2946 32.2494 60.2546 32.0598C60.2145 31.8702 60.1005 31.7042 59.9377 31.5984C59.775 31.4926 59.5767 31.4556 59.3866 31.4956C59.1964 31.5355 59.03 31.6492 58.9239 31.8115L55.7761 36.6422C54.7519 34.6502 54.2455 32.3485 54.2455 29.72C54.2455 29.6241 54.2265 29.5291 54.1897 29.4405C54.1529 29.3519 54.099 29.2714 54.031 29.2036C53.963 29.1358 53.8822 29.082 53.7934 29.0453C53.7045 29.0086 53.6093 28.9897 53.5131 28.9897C53.4169 28.9897 53.3217 29.0086 53.2329 29.0453C53.144 29.082 53.0633 29.1358 52.9953 29.2036C52.9273 29.2714 52.8733 29.3519 52.8365 29.4405C52.7997 29.5291 52.7808 29.6241 52.7808 29.72C52.7808 36.0564 55.4391 40.6543 60.8857 43.7089C57.3739 43.667 53.9972 42.353 51.3852 40.0117C48.7732 37.6705 47.1042 34.4618 46.6895 30.984C46.2747 27.5062 47.1425 23.9967 49.1309 21.1098C51.1194 18.2229 54.0928 16.1558 57.4969 15.2937C57.6385 15.2592 57.772 15.1972 57.8896 15.1113C58.0073 15.0253 58.1068 14.9171 58.1825 14.7928C58.2582 14.6685 58.3086 14.5305 58.3308 14.3868C58.353 14.2431 58.3467 14.0964 58.3121 13.9551C58.2774 13.8139 58.2153 13.6808 58.1291 13.5634C58.0429 13.4461 57.9344 13.3469 57.8097 13.2714C57.6851 13.1959 57.5467 13.1457 57.4026 13.1235C57.2585 13.1013 57.1114 13.1077 56.9697 13.1422C53.988 13.8948 51.2757 15.4617 49.1378 17.6668C49.0564 17.2241 48.9145 16.7945 48.7161 16.3902L47.7823 14.4996L46.1029 11.077L45.3291 9.49807C45.2841 9.40634 45.2202 9.32506 45.1416 9.25949C45.0631 9.19391 44.9717 9.14549 44.8732 9.11735C44.7747 9.08922 44.6714 9.082 44.57 9.09616C44.4685 9.11032 44.3712 9.14554 44.2842 9.19956C44.1287 9.30107 44.0163 9.45637 43.9687 9.63557C43.9211 9.81476 43.9416 10.0052 44.0263 10.1702L45.2275 12.6109L47.2551 16.7337C47.3147 16.8556 47.3392 16.9915 47.3259 17.1264C47.3126 17.2613 47.2621 17.3899 47.1798 17.4979C47.109 17.59 47.0173 17.664 46.9122 17.7137C46.807 17.7634 46.6915 17.7874 46.5752 17.7838C46.4589 17.7801 46.3451 17.7488 46.2434 17.6926C46.1416 17.6363 46.0547 17.5567 45.9899 17.4603L44.3859 14.1917L43.5782 12.547C43.5358 12.4607 43.4768 12.3836 43.4045 12.3201C43.3322 12.2565 43.2481 12.2078 43.1569 12.1767C42.9728 12.1139 42.7712 12.1265 42.5964 12.2119C42.4217 12.2973 42.2881 12.4484 42.2251 12.6321C42.162 12.8157 42.1747 13.0167 42.2604 13.191L43.1641 15.0328L43.5293 15.7838L44.7135 18.1925C44.7229 18.2147 44.7342 18.2361 44.7474 18.2563L45.6529 20.0981C45.7133 20.2202 45.7381 20.3567 45.7244 20.4922C45.7108 20.6276 45.6593 20.7565 45.5758 20.8641C45.5075 20.9546 45.4184 21.0274 45.3159 21.0763C45.1419 21.1606 44.9413 21.1728 44.7583 21.1102C44.5752 21.0476 44.4244 20.9153 44.3388 20.7421L44.192 20.4436L42.6746 17.3533L41.8838 15.7387L41.7389 15.4402C41.6532 15.2659 41.5017 15.1327 41.3176 15.0698C41.1334 15.007 40.9318 15.0197 40.7571 15.1051C40.5823 15.1905 40.4487 15.3416 40.3857 15.5252C40.3227 15.7088 40.3354 15.9099 40.421 16.0841L41.8217 18.9416L44.6966 26.1735C44.5735 26.8169 44.4893 27.467 44.4443 28.1204L34.2778 22.6759C34.193 22.6305 34.1001 22.6022 34.0043 22.5927C33.9086 22.5831 33.8119 22.5925 33.7197 22.6202C33.6276 22.6479 33.5419 22.6935 33.4674 22.7542C33.3929 22.815 33.3311 22.8898 33.2857 22.9744C33.2402 23.0589 33.2118 23.1516 33.2022 23.2471C33.1927 23.3426 33.202 23.439 33.2298 23.5309C33.2576 23.6228 33.3033 23.7083 33.3643 23.7826C33.4252 23.8568 33.5002 23.9184 33.585 23.9638L37.3504 25.9802L34.0048 27.6248C33.8301 27.7102 33.6965 27.8613 33.6335 28.0449C33.5704 28.2285 33.5832 28.4296 33.6688 28.6039C33.7544 28.7782 33.906 28.9114 34.0901 28.9742C34.2742 29.0371 34.4758 29.0244 34.6506 28.939L38.9356 26.8325L44.4217 29.7726C44.4868 31.8946 44.9578 33.9848 45.8092 35.9306L39.0485 39.4715C38.9031 39.547 38.7873 39.6691 38.7197 39.818C38.652 39.967 38.6365 40.1343 38.6756 40.2931C38.7146 40.452 38.806 40.5931 38.9351 40.694C39.0641 40.7949 39.2234 40.8496 39.3874 40.8495C39.5061 40.849 39.623 40.82 39.7282 40.765L46.4512 37.2429C46.7529 37.7909 47.0848 38.3217 47.4453 38.8331L44.3934 43.4047C44.286 43.5658 44.247 43.7629 44.2852 43.9526C44.3233 44.1424 44.4354 44.3093 44.5968 44.4167C44.7161 44.4978 44.8572 44.5409 45.0015 44.5406C45.1224 44.5407 45.2414 44.5109 45.3478 44.4539C45.4543 44.3969 45.5449 44.3144 45.6115 44.2139L48.3847 40.0366C49.9485 41.8653 51.8906 43.3349 54.0777 44.3444C56.2648 45.3539 58.6451 45.8794 61.0551 45.8848H61.3017L69.0075 45.7947C69.7105 45.7193 70.3888 45.4933 70.9961 45.1324C71.6033 44.7714 72.1253 44.2839 72.5262 43.7032L73.7236 41.9685L75.8887 38.8294L76.8884 37.38C76.9461 37.2957 76.9855 37.2003 77.004 37.0999C77.0225 36.9995 77.0197 36.8964 76.9957 36.7971C76.9718 36.6979 76.9273 36.6047 76.865 36.5237C76.8027 36.4427 76.7241 36.3756 76.6342 36.3268V36.3268Z" fill="black"/>
<path d="M57.962 12.0344C57.9252 12.0385 57.8888 12.0448 57.8528 12.0532C57.9168 12.0532 57.9808 12.0363 58.041 12.0306L57.962 12.0344Z" fill="black"/>
<path d="M58.3623 14.0171C58.4389 13.9956 58.5124 13.964 58.5807 13.9232C58.5035 13.9533 58.4301 13.9833 58.3623 14.0171Z" fill="black"/>
<path d="M79.7523 47.8937C79.5806 47.516 79.3229 47.1836 78.9996 46.9228C78.6764 46.662 78.2965 46.4802 77.8903 46.3917H53.9803C53.9803 46.3917 54.6543 49.9851 58.0262 49.9851C58.9129 49.9851 60.0614 49.7336 60.5433 49.3675C59.1991 54.2488 57.1545 60.2829 55.0554 61.1954C54.0255 61.646 51.4783 61.798 48.3493 61.8412L20.4857 61.8863C20.5476 62.1736 20.6306 62.456 20.7342 62.7311C21.063 63.6642 21.6096 64.5059 22.3288 65.1868C23.195 65.9692 24.327 66.394 25.4955 66.3752H25.6838C25.1726 67.4462 24.9076 68.6174 24.9081 69.8034V73.0796C24.8947 73.5245 24.8424 73.9674 24.7518 74.4032C24.3365 76.2965 23.2485 77.9762 21.6887 79.1325C20.4386 80.0712 18.1832 80.4073 18.1888 82.3429L18.0552 96.987L19.7119 100.717H24.8516L21.9636 95.6089V87.8645C21.9678 87.2758 22.1764 86.7067 22.554 86.2542C22.9316 85.8017 23.4548 85.4936 24.0345 85.3825H24.0553C24.4732 85.2999 24.8855 85.1947 25.2884 85.0821L25.52 85.0107C26.2409 84.7897 26.9433 84.5129 27.621 84.1828C27.8093 84.0927 27.9976 83.9951 28.1727 83.9031C28.3082 83.8298 28.4419 83.7566 28.5774 83.6796C28.713 83.6027 28.8071 83.5426 28.9201 83.475C30.1787 82.7107 31.3201 81.7691 32.3089 80.6795C32.4482 80.5255 32.58 80.3716 32.7137 80.2139C33.1416 79.7001 33.5353 79.1588 33.8922 78.5936H54.2816V100.701L60.3363 100.01L58.286 96.3843V79.9398L58.2615 79.9266H66.4719V83.4938L65.8939 84.0777L62.7159 87.2693L64.5986 93.234L69.7364 85.4876C70.1037 85.0142 70.3025 84.4322 70.3012 83.8336V78.603C70.3015 78.2773 70.2374 77.9548 70.1126 77.6538C69.9879 77.3528 69.8049 77.0793 69.5741 76.8488C69.3434 76.6183 69.0694 76.4354 68.7677 76.3106C68.4661 76.1857 68.1427 76.1213 67.8161 76.1211H63.0812C63.2469 76.0478 68.3809 73.6804 70.4726 66.4203C71.3442 63.392 71.0543 59.3104 70.4839 54.8252C71.939 54.3891 73.2359 53.5413 74.2172 52.3845C74.357 52.2317 74.5136 52.095 74.6841 51.9771C74.7613 51.9264 74.8385 51.8795 74.9194 51.8344C75.471 51.5384 76.1095 51.4453 76.723 51.5716L76.7663 51.581C76.9422 51.6178 77.1214 51.636 77.301 51.6354C77.7471 51.6366 78.1864 51.5259 78.5783 51.3134C78.9703 51.101 79.3024 50.7937 79.544 50.4197C79.7857 50.0458 79.9292 49.6173 79.9613 49.1736C79.9934 48.7298 79.9131 48.2852 79.7278 47.8805L79.7523 47.8937ZM66.1537 49.6866C66.0506 49.6864 65.9486 49.6659 65.8534 49.6263C65.7583 49.5868 65.6719 49.5289 65.5991 49.456C65.5264 49.3831 65.4688 49.2967 65.4296 49.2016C65.3903 49.1065 65.3703 49.0047 65.3705 48.9019V48.8887C65.3783 48.682 65.4663 48.4864 65.6159 48.3432C65.7656 48.1999 65.9651 48.1202 66.1725 48.1208C66.3808 48.1233 66.5795 48.2082 66.7249 48.3568C66.8704 48.5054 66.9507 48.7055 66.9482 48.9131C66.9457 49.1208 66.8606 49.3189 66.7116 49.464C66.5626 49.609 66.3619 49.6891 66.1537 49.6866V49.6866Z" fill="black"/>
<path d="M41.333 79.1832C39.8142 82.0661 37.2761 84.2839 34.2108 85.4069C33.7309 85.5829 33.3164 85.9012 33.0233 86.3191C32.7301 86.737 32.5723 87.2343 32.571 87.7443V95.5301L35.5607 100.77L30.052 100.64L28.7341 97.2611V84.2523C28.8716 84.179 29.4495 83.858 29.5625 83.7904C30.6964 83.1198 31.7137 82.2701 32.5748 81.2746C32.7141 81.1207 32.8478 80.9667 32.9814 80.809C33.4094 80.2957 33.8025 79.7544 34.1581 79.1888L41.333 79.1832Z" fill="black"/>
<path d="M65.0687 74.4932C65.0687 73.9168 65.0781 73.3104 65.0857 72.5482C65.112 69.9779 65.1553 65.6992 65.1572 54.6711C66.094 54.9307 67.0637 55.0527 68.0358 55.0335C68.753 55.0336 69.4672 54.9428 70.1614 54.7631C70.7525 59.4868 70.9803 63.2417 70.2367 66.1555C69.391 69.3884 67.5904 72.2933 65.0687 74.4932V74.4932Z" fill="white"/>
<path d="M65.4395 55.0409C66.2909 55.2348 67.1624 55.3268 68.0357 55.315C68.6688 55.3148 69.3001 55.2462 69.9184 55.1103C70.4832 59.6556 70.6714 63.2772 69.9617 66.0859C69.1874 69.0551 67.5901 71.7469 65.3529 73.8528C65.3529 73.4605 65.3529 73.038 65.3661 72.5499C65.3924 70.0097 65.4357 65.7911 65.4376 55.0409H65.4395ZM64.8728 54.2786C64.8728 70.2219 64.7843 72.3884 64.7843 75.0525C67.5907 72.7985 69.597 69.7053 70.5076 66.2285C71.3078 63.097 70.984 59.006 70.3984 54.4006C69.6319 54.6329 68.835 54.7506 68.0338 54.7498C66.6293 54.7498 65.6108 54.5621 64.8728 54.2767V54.2786Z" fill="black"/>
<path d="M25.1921 66.0861C24.1185 66.0873 23.0828 65.6898 22.2872 64.9709C21.6034 64.3206 21.0835 63.5184 20.7697 62.6297C20.7114 62.4758 20.6605 62.318 20.6154 62.1603L31.5047 62.1453C30.4371 62.4212 29.4202 62.8648 28.4925 63.4595C27.7808 63.9195 26.6418 65.198 26.1071 66.0879L25.1921 66.0861Z" fill="white"/>
<path d="M29.8121 62.4306C29.2975 62.6522 28.8025 62.9166 28.3323 63.221C27.6169 63.6847 26.5287 64.8863 25.9451 65.8063H25.192C24.1905 65.8072 23.2244 65.4372 22.481 64.768C21.8299 64.1482 21.3345 63.3841 21.0351 62.5376V62.5189L21.0049 62.4344L29.8159 62.4231L29.8121 62.4306ZM35.2888 61.8599L20.2594 61.8786C20.3213 62.166 20.4043 62.4484 20.5079 62.7235C20.8367 63.6566 21.3833 64.4983 22.1025 65.1792C22.9501 65.9442 24.0526 66.3678 25.1958 66.3676H26.2576C26.2275 66.4277 26.2049 66.4915 26.1766 66.5554C26.5532 65.7293 27.8936 64.1841 28.6448 63.696C30.8344 62.2729 33.2781 62.0363 35.2888 61.8655V61.8599Z" fill="black"/>
<path d="M121.692 67.7757V63.5158L123.644 65.4646C123.715 65.5342 123.798 65.5894 123.89 65.6269C123.982 65.6644 124.08 65.6835 124.179 65.6831C124.278 65.6828 124.376 65.663 124.468 65.6248C124.559 65.5867 124.642 65.5309 124.712 65.4608C124.782 65.3907 124.837 65.3075 124.875 65.216C124.912 65.1246 124.931 65.0266 124.931 64.9278C124.931 64.8289 124.911 64.7311 124.873 64.6399C124.834 64.5487 124.778 64.4659 124.708 64.3963L121.696 61.3924V59.7609L123.648 61.7115C123.719 61.7809 123.802 61.8358 123.894 61.8731C123.986 61.9103 124.084 61.9291 124.183 61.9285C124.282 61.9279 124.38 61.9079 124.471 61.8695C124.562 61.8311 124.645 61.7752 124.715 61.705C124.784 61.6347 124.839 61.5515 124.877 61.46C124.914 61.3685 124.933 61.2706 124.932 61.1718C124.932 61.0731 124.912 60.9754 124.873 60.8844C124.835 60.7934 124.779 60.7108 124.708 60.6414L121.696 57.6375V56.0079L123.648 57.9567C123.719 58.0261 123.802 58.0809 123.894 58.1182C123.986 58.1554 124.084 58.1742 124.183 58.1736C124.282 58.173 124.38 58.153 124.471 58.1146C124.562 58.0763 124.645 58.0203 124.715 57.9501C124.784 57.8798 124.839 57.7966 124.877 57.7051C124.914 57.6136 124.933 57.5157 124.932 57.4169C124.932 57.3182 124.912 57.2205 124.873 57.1295C124.835 57.0385 124.779 56.9559 124.708 56.8865L121.696 53.8826V52.253L123.648 54.2018C123.719 54.2712 123.802 54.326 123.894 54.3633C123.986 54.4005 124.084 54.4194 124.183 54.4187C124.282 54.4181 124.38 54.3981 124.471 54.3597C124.562 54.3214 124.645 54.2655 124.715 54.1952C124.784 54.1249 124.839 54.0417 124.877 53.9502C124.914 53.8587 124.933 53.7608 124.932 53.662C124.932 53.5633 124.912 53.4656 124.873 53.3746C124.835 53.2836 124.779 53.201 124.708 53.1316L121.696 50.1277V48.4962L123.648 50.445C123.79 50.5852 123.982 50.6633 124.182 50.6623C124.382 50.6612 124.573 50.581 124.714 50.4394C124.854 50.2977 124.933 50.1062 124.932 49.9069C124.931 49.7076 124.85 49.5169 124.708 49.3767L121.696 46.3728V42.9934C121.696 42.7942 121.617 42.6032 121.475 42.4624C121.334 42.3216 121.143 42.2424 120.943 42.2424C120.743 42.2424 120.552 42.3216 120.41 42.4624C120.269 42.6032 120.19 42.7942 120.19 42.9934V46.431L117.238 49.3767C117.162 49.4449 117.101 49.5277 117.058 49.6201C117.016 49.7125 116.992 49.8126 116.99 49.9143C116.987 50.016 117.005 50.1172 117.043 50.2117C117.08 50.3062 117.137 50.3921 117.209 50.4642C117.281 50.5363 117.367 50.593 117.462 50.6309C117.556 50.6689 117.658 50.6872 117.76 50.6849C117.862 50.6826 117.962 50.6596 118.055 50.6174C118.148 50.5752 118.231 50.5146 118.3 50.4394L120.182 48.5619V50.1934L117.238 53.1316C117.162 53.1998 117.101 53.2826 117.058 53.375C117.016 53.4674 116.992 53.5675 116.99 53.6692C116.987 53.7709 117.005 53.8721 117.043 53.9666C117.08 54.0611 117.137 54.147 117.209 54.2191C117.281 54.2911 117.367 54.3479 117.462 54.3858C117.556 54.4237 117.658 54.4421 117.76 54.4398C117.862 54.4375 117.962 54.4145 118.055 54.3723C118.148 54.3301 118.231 54.2695 118.3 54.1943L120.182 52.3168V53.9464L117.238 56.8865C117.162 56.9547 117.101 57.0375 117.058 57.1299C117.016 57.2223 116.992 57.3224 116.99 57.4241C116.987 57.5258 117.005 57.627 117.043 57.7215C117.08 57.816 117.137 57.9019 117.209 57.974C117.281 58.046 117.367 58.1028 117.462 58.1407C117.556 58.1786 117.658 58.197 117.76 58.1947C117.862 58.1923 117.962 58.1694 118.055 58.1272C118.148 58.085 118.231 58.0244 118.3 57.9491L120.182 56.0717V57.7013L117.238 60.6414C117.162 60.7096 117.101 60.7924 117.058 60.8848C117.016 60.9772 116.992 61.0773 116.99 61.179C116.987 61.2807 117.005 61.3819 117.043 61.4764C117.08 61.5709 117.137 61.6568 117.209 61.7289C117.281 61.8009 117.367 61.8576 117.462 61.8956C117.556 61.9335 117.658 61.9519 117.76 61.9496C117.862 61.9472 117.962 61.9243 118.055 61.8821C118.148 61.8399 118.231 61.7793 118.3 61.704L120.182 59.8172V61.4487L117.238 64.3963C117.16 64.464 117.098 64.5468 117.053 64.6397C117.009 64.7325 116.985 64.8334 116.981 64.936C116.978 65.0387 116.996 65.1409 117.034 65.2365C117.071 65.332 117.128 65.4188 117.201 65.4915C117.274 65.5642 117.361 65.6213 117.457 65.6591C117.552 65.697 117.655 65.7148 117.758 65.7116C117.861 65.7084 117.962 65.6841 118.055 65.6403C118.148 65.5965 118.231 65.5342 118.3 65.457L120.182 63.5796V67.8376C116.678 68.0127 113.205 68.5795 109.827 69.5273V64.646L111.97 66.7844C112.038 66.8598 112.122 66.9205 112.214 66.9629C112.307 67.0053 112.407 67.0284 112.509 67.0309C112.611 67.0334 112.713 67.0152 112.808 66.9774C112.902 66.9397 112.988 66.8831 113.061 66.8112C113.133 66.7392 113.189 66.6534 113.227 66.559C113.265 66.4645 113.283 66.3634 113.281 66.2617C113.278 66.16 113.255 66.0598 113.213 65.9673C113.17 65.8749 113.109 65.7919 113.034 65.7236L110.014 62.7066C109.958 62.6537 109.895 62.6099 109.826 62.577V60.8873L111.968 63.0258C112.037 63.1011 112.12 63.1619 112.212 63.2042C112.305 63.2466 112.406 63.2697 112.508 63.2723C112.61 63.2748 112.711 63.2566 112.806 63.2188C112.9 63.181 112.987 63.1245 113.059 63.0525C113.131 62.9806 113.187 62.8948 113.225 62.8003C113.263 62.7059 113.281 62.6047 113.279 62.503C113.276 62.4013 113.253 62.3012 113.211 62.2087C113.168 62.1162 113.107 62.0333 113.032 61.965L110.014 58.9517C109.958 58.8988 109.895 58.855 109.826 58.8222V57.1325L111.968 59.2709C112.037 59.3435 112.121 59.4015 112.213 59.4416C112.305 59.4816 112.404 59.5028 112.505 59.504C112.605 59.5052 112.705 59.4864 112.798 59.4485C112.891 59.4107 112.976 59.3546 113.047 59.2837C113.118 59.2127 113.174 59.1283 113.211 59.0354C113.249 58.9426 113.268 58.8431 113.267 58.7428C113.265 58.6426 113.244 58.5437 113.203 58.4519C113.163 58.36 113.105 58.2772 113.032 58.2082L110.014 55.1968C109.958 55.1439 109.895 55.1002 109.826 55.0673V53.3776L111.968 55.516C112.037 55.5886 112.121 55.6466 112.213 55.6867C112.305 55.7267 112.404 55.748 112.505 55.7492C112.605 55.7503 112.705 55.7315 112.798 55.6936C112.891 55.6558 112.976 55.5997 113.047 55.5288C113.118 55.4578 113.174 55.3734 113.211 55.2806C113.249 55.1877 113.268 55.0882 113.267 54.988C113.265 54.8877 113.244 54.7888 113.203 54.697C113.163 54.6052 113.105 54.5223 113.032 54.4533L110.014 51.4419C109.958 51.389 109.895 51.3453 109.826 51.3124V49.6227L111.968 51.7611C112.037 51.8337 112.121 51.8917 112.213 51.9318C112.305 51.9718 112.404 51.9931 112.505 51.9943C112.605 51.9955 112.705 51.9766 112.798 51.9387C112.891 51.9009 112.976 51.8448 113.047 51.7739C113.118 51.7029 113.174 51.6186 113.211 51.5257C113.249 51.4328 113.268 51.3333 113.267 51.2331C113.265 51.1328 113.244 51.0339 113.203 50.9421C113.163 50.8503 113.105 50.7674 113.032 50.6984L110.014 47.687C109.958 47.6347 109.894 47.5911 109.826 47.5575V45.8678L111.968 48.0062C112.037 48.0788 112.121 48.1368 112.213 48.1769C112.305 48.2169 112.404 48.2382 112.505 48.2394C112.605 48.2406 112.705 48.2217 112.798 48.1838C112.891 48.146 112.976 48.0899 113.047 48.019C113.118 47.9481 113.174 47.8637 113.211 47.7708C113.249 47.6779 113.268 47.5784 113.267 47.4782C113.265 47.3779 113.244 47.279 113.203 47.1872C113.163 47.0954 113.105 47.0125 113.032 46.9436L110.014 43.9321C109.958 43.8792 109.895 43.8355 109.826 43.8026V39.9895C109.826 39.7903 109.746 39.5993 109.605 39.4585C109.464 39.3176 109.272 39.2385 109.073 39.2385C108.873 39.2385 108.681 39.3176 108.54 39.4585C108.399 39.5993 108.319 39.7903 108.319 39.9895V43.8458C108.278 43.8728 108.241 43.9043 108.206 43.9396L105.183 46.9567C105.11 47.0257 105.052 47.1085 105.011 47.2003C104.971 47.2922 104.95 47.3911 104.948 47.4913C104.947 47.5915 104.966 47.691 105.003 47.7839C105.041 47.8768 105.097 47.9612 105.168 48.0321C105.239 48.1031 105.324 48.1591 105.417 48.197C105.51 48.2348 105.61 48.2537 105.71 48.2525C105.811 48.2513 105.91 48.2301 106.002 48.19C106.094 48.15 106.177 48.0919 106.247 48.0193L108.318 45.9541V47.6063C108.277 47.6332 108.239 47.6641 108.205 47.6983L105.181 50.7172C105.108 50.7862 105.05 50.869 105.009 50.9609C104.969 51.0527 104.948 51.1516 104.946 51.2518C104.945 51.3521 104.964 51.4516 105.001 51.5444C105.039 51.6373 105.095 51.7217 105.166 51.7927C105.237 51.8636 105.322 51.9197 105.415 51.9575C105.508 51.9954 105.608 52.0142 105.708 52.013C105.809 52.0118 105.908 51.9906 106 51.9505C106.092 51.9105 106.175 51.8525 106.245 51.7799L108.316 49.7147V51.3668C108.275 51.3932 108.237 51.4241 108.203 51.4588L105.179 54.4777C105.106 54.5467 105.048 54.6296 105.008 54.7214C104.967 54.8132 104.946 54.9121 104.944 55.0124C104.943 55.1126 104.962 55.2121 105 55.305C105.037 55.3978 105.093 55.4822 105.164 55.5532C105.235 55.6241 105.32 55.6802 105.413 55.718C105.506 55.7559 105.606 55.7748 105.706 55.7736C105.807 55.7724 105.906 55.7511 105.998 55.7111C106.09 55.671 106.174 55.613 106.243 55.5404L108.314 53.4752V55.1255C108.273 55.1531 108.235 55.1845 108.201 55.2193L105.177 58.2383C105.104 58.3072 105.046 58.3901 105.006 58.4819C104.965 58.5737 104.944 58.6727 104.942 58.7729C104.941 58.8731 104.96 58.9726 104.998 59.0655C105.035 59.1584 105.092 59.2428 105.163 59.3137C105.234 59.3846 105.318 59.4407 105.411 59.4785C105.504 59.5164 105.604 59.5353 105.704 59.5341C105.805 59.5329 105.904 59.5116 105.996 59.4716C106.089 59.4315 106.172 59.3735 106.241 59.3009L108.312 57.2357V58.886C108.271 58.9136 108.234 58.945 108.199 58.9799L105.175 61.9988C105.1 62.0671 105.039 62.15 104.996 62.2425C104.954 62.335 104.931 62.4351 104.928 62.5368C104.926 62.6385 104.944 62.7397 104.982 62.8341C105.02 62.9286 105.076 63.0144 105.149 63.0863C105.221 63.1583 105.307 63.2148 105.401 63.2526C105.496 63.2904 105.598 63.3086 105.7 63.3061C105.802 63.3035 105.902 63.2804 105.995 63.238C106.087 63.1957 106.171 63.1349 106.239 63.0595L108.31 60.9944V62.6465C108.269 62.6735 108.231 62.705 108.197 62.7404L105.174 65.7593C105.044 65.9022 104.974 66.0893 104.979 66.282C104.983 66.4748 105.062 66.6583 105.199 66.7946C105.336 66.9309 105.52 67.0096 105.713 67.0143C105.906 67.019 106.094 66.9495 106.237 66.8201L108.308 64.7549V69.9197C108.309 69.9569 108.313 69.9939 108.319 70.0305C106.437 70.6471 104.604 71.4066 102.837 72.3022C100.733 73.3798 98.7265 74.6361 96.8389 76.0571V69.486L98.7912 71.4348C98.9337 71.5696 99.1234 71.6435 99.3198 71.6408C99.5161 71.6382 99.7037 71.5591 99.8424 71.4205C99.9812 71.2819 100.06 71.0947 100.062 70.8989C100.065 70.703 99.9904 70.514 99.855 70.3722L96.8427 67.3683V65.7387L98.795 67.6874C98.9375 67.8222 99.1272 67.8961 99.3235 67.8935C99.5199 67.8908 99.7075 67.8117 99.8462 67.6731C99.9849 67.5345 100.064 67.3473 100.066 67.1515C100.069 66.9557 99.9941 66.7667 99.8587 66.6248L96.8464 63.6209V61.9913L98.7988 63.9401C98.9413 64.0748 99.1309 64.1488 99.3273 64.1461C99.5237 64.1434 99.7112 64.0643 99.85 63.9257C99.9887 63.7871 100.068 63.5999 100.07 63.4041C100.072 63.2083 99.9979 63.0193 99.8625 62.8774L96.8502 59.8735V58.242L98.8025 60.1908C98.945 60.3256 99.1347 60.3995 99.3311 60.3968C99.5274 60.3941 99.715 60.3151 99.8537 60.1765C99.9925 60.0379 100.071 59.8507 100.074 59.6549C100.076 59.459 100.002 59.27 99.8663 59.1282L96.854 56.1243V54.4928L98.8063 56.4416C98.9496 56.571 99.1372 56.6405 99.3305 56.6358C99.5237 56.631 99.7078 56.5524 99.8445 56.4161C99.9811 56.2797 100.06 56.0962 100.065 55.9035C100.07 55.7108 99.9998 55.5237 99.87 55.3808L96.8577 52.3769V48.9975C96.8577 48.7983 96.7784 48.6073 96.6372 48.4665C96.4959 48.3256 96.3044 48.2465 96.1047 48.2465C95.9049 48.2465 95.7134 48.3256 95.5722 48.4665C95.4309 48.6073 95.3516 48.7983 95.3516 48.9975V52.4351L92.4014 55.3827C92.2716 55.5255 92.2019 55.7127 92.2067 55.9054C92.2114 56.0981 92.2903 56.2816 92.427 56.4179C92.5637 56.5543 92.7477 56.6329 92.941 56.6377C93.1342 56.6424 93.3219 56.5729 93.4652 56.4434L95.3478 54.566V56.1975L92.3977 59.1432C92.3247 59.2122 92.2664 59.295 92.2261 59.3868C92.1858 59.4786 92.1643 59.5776 92.1629 59.6778C92.1615 59.778 92.1803 59.8775 92.2181 59.9704C92.2559 60.0633 92.3119 60.1477 92.3829 60.2186C92.4539 60.2896 92.5385 60.3456 92.6316 60.3835C92.7246 60.4213 92.8244 60.4402 92.9249 60.439C93.0254 60.4378 93.1246 60.4166 93.2168 60.3765C93.3089 60.3365 93.3921 60.2784 93.4614 60.2058L95.3441 58.3284V59.9599L92.3939 62.9056C92.321 62.9746 92.2626 63.0574 92.2223 63.1492C92.182 63.241 92.1605 63.34 92.1591 63.4402C92.1578 63.5404 92.1765 63.6399 92.2143 63.7328C92.2521 63.8257 92.3082 63.9101 92.3792 63.981C92.4502 64.052 92.5347 64.108 92.6278 64.1459C92.7209 64.1837 92.8206 64.2026 92.9211 64.2014C93.0216 64.2002 93.1209 64.179 93.213 64.1389C93.3051 64.0989 93.3883 64.0408 93.4576 63.9682L95.3403 62.0908V63.7204L92.3901 66.668C92.3172 66.737 92.2589 66.8198 92.2185 66.9116C92.1782 67.0034 92.1567 67.1024 92.1554 67.2026C92.154 67.3028 92.1728 67.4023 92.2105 67.4952C92.2483 67.5881 92.3044 67.6725 92.3754 67.7434C92.4464 67.8144 92.5309 67.8704 92.624 67.9083C92.7171 67.9461 92.8168 67.965 92.9173 67.9638C93.0179 67.9626 93.1171 67.9414 93.2092 67.9013C93.3014 67.8613 93.3846 67.8032 93.4539 67.7306L95.3365 65.8532V67.4828L92.3864 70.4304C92.3134 70.4994 92.2551 70.5822 92.2148 70.674C92.1745 70.7658 92.153 70.8648 92.1516 70.965C92.1502 71.0652 92.169 71.1647 92.2068 71.2576C92.2446 71.3505 92.3006 71.4349 92.3716 71.5058C92.4426 71.5768 92.5272 71.6328 92.6203 71.6707C92.7133 71.7085 92.8131 71.7274 92.9136 71.7262C93.0141 71.725 93.1133 71.7038 93.2055 71.6637C93.2976 71.6237 93.3808 71.5656 93.4501 71.493L95.3328 69.6062V77.0259C95.3338 77.1052 95.3478 77.1838 95.3742 77.2587C93.4463 78.8132 91.735 80.4034 90.1291 81.8997C89.6 82.3935 89.0804 82.8778 88.5683 83.3453C88.1014 83.7709 87.6389 84.1958 87.1808 84.6201C78.6786 92.4603 70.6471 99.8668 44.6117 99.8668C34.5186 99.8668 25.5759 99.803 19.6587 99.7617C16.5899 99.7392 14.3703 99.7242 13.0693 99.7242V101.32C14.3665 101.32 16.5824 101.335 19.6587 101.358C25.5797 101.399 34.5318 101.463 44.6229 101.463C71.2835 101.463 79.539 93.8515 88.2765 85.7935L89.6584 84.5225C90.1742 84.0519 90.6989 83.5669 91.2323 83.0675C97.929 76.8268 106.265 69.0636 124.906 69.4598L124.94 67.8639C123.838 67.7688 122.755 67.7394 121.692 67.7757Z" fill="black"/>
<path d="M87.9997 121.058V114.652C87.9997 112.269 87.1845 111.46 84.7276 111.46H79.7573C78.9628 111.46 78.9082 112.145 78.9082 113.86H79.9569L78.6183 121.043L76.7036 121.367L76.8222 122.194C76.9314 122.97 77.1174 123.734 77.3776 124.475C77.5272 124.936 77.732 125.377 77.9876 125.789C78.2775 126.204 78.5298 126.403 79.0174 126.403C79.5239 126.375 80.0233 126.272 80.4991 126.097C80.1767 125.115 79.9251 124.111 79.746 123.093H86.437C86.258 124.111 86.0063 125.115 85.684 126.097C86.1598 126.272 86.6592 126.375 87.1656 126.403C87.6533 126.403 87.9055 126.204 88.1955 125.789C88.54 125.288 88.9015 124.323 89.2272 123.085H89.2385C89.3533 122.648 89.4625 122.177 89.5661 121.679V121.428L87.9997 121.058ZM85.3056 120.682H81.5402L82.5719 113.86H84.0348C84.9196 113.86 85.2999 114.222 85.2999 115.087L85.3056 120.682Z" fill="black"/>
<path d="M8.83162 123.097V115.36C8.83162 114.233 8.34401 113.809 7.13722 113.809H5.68944L4.98532 120.211C4.73116 122.276 3.46789 123.204 1.93162 123.204C0.903684 123.204 0 122.772 0 121.906V120.697C0.271843 120.797 0.559592 120.846 0.849086 120.842C1.79042 120.842 2.2385 120.156 2.38347 119.152L3.07064 113.814H1.95045C1.95045 112.102 2.00505 111.417 2.79954 111.417H8.07102C10.7802 111.417 11.5201 112.498 11.5201 115.095V121.732C11.522 123.097 11.1963 123.097 8.83162 123.097Z" fill="black"/>
<path d="M21.9258 123.023L21.2387 121.005H16.7203L16.1423 123.023H13.1658C14.1856 119.711 15.4849 116.491 17.0497 113.398C17.3566 112.784 17.447 112.26 17.3208 111.918C18.2226 111.468 19.4332 111.287 20.3726 111.252L24.9231 122.809V123.025L21.9258 123.023ZM19.0717 114.639C18.4768 115.973 17.9158 117.398 17.4281 118.822H20.4988L19.0717 114.639Z" fill="black"/>
<path d="M34.265 123.097V115.037C34.265 114.171 33.8884 113.809 32.9998 113.809H29.2947V123.023H26.6044V112.782C26.6044 111.411 27.0016 111.411 29.2947 111.411H33.6832C36.1307 111.411 36.9515 112.222 36.9515 114.603V121.726C36.9515 123.097 36.6089 123.097 34.265 123.097Z" fill="black"/>
<path d="M47.3546 123.097V115.36C47.3546 114.233 46.867 113.809 45.6602 113.809H44.2162L43.5121 120.211C43.2579 122.276 41.9946 123.204 40.4584 123.204C39.4304 123.204 38.5267 122.772 38.5267 121.906V120.697C38.7986 120.797 39.0863 120.846 39.3758 120.842C40.3172 120.842 40.7671 120.156 40.9102 119.152L41.5974 113.814H40.4678C40.4678 112.102 40.5224 111.417 41.3169 111.417H46.5883C49.2975 111.417 50.0374 112.498 50.0374 115.095V121.732C50.0449 123.097 49.7192 123.097 47.3546 123.097Z" fill="black"/>
<path d="M60.4492 123.023L59.762 121.005H55.2436L54.6656 123.023H51.6891C52.7081 119.711 54.0074 116.491 55.573 113.398C55.8799 112.784 55.9703 112.26 55.8441 111.918C56.7459 111.468 57.9565 111.287 58.896 111.252L63.4464 122.807V123.023H60.4492ZM57.595 114.639C57.0001 115.973 56.4391 117.398 55.9515 118.822H59.0221L57.595 114.639Z" fill="black"/>
<path d="M75.348 121.726C75.348 123.097 75.0054 123.097 72.6558 123.097V118.679H67.8173V123.023H65.1251V112.711C65.1251 111.34 65.4696 111.34 67.8173 111.34V116.298H72.6558V111.417H75.348V121.726Z" fill="black"/>
<path d="M100.217 120.986C100.217 122.488 98.3564 123.204 96.2271 123.204C92.4335 123.204 90.2854 120.752 90.2854 116.875C90.2854 113.467 92.5954 111.231 96.2083 111.231C98.701 111.231 100.597 112.403 100.597 114.235C100.597 115.262 99.8927 115.857 98.7913 115.857H98.2134V115.463C98.2134 114.237 97.5262 113.443 96.1537 113.443C94.367 113.443 93.0831 114.832 93.0831 116.869C93.0831 119.321 94.5101 120.872 97.112 120.872C98.1795 120.862 99.2346 120.642 100.217 120.224V120.986Z" fill="black"/>
<path d="M108.363 121.743L106.432 118.655H105.15V123.018H102.457V112.711C102.457 111.34 102.802 111.34 105.15 111.34V116.353H106.125C108.796 116.353 107.317 111.231 110.911 111.231C112.102 111.231 112.68 111.755 112.68 112.746V113.122H112.445C110.133 113.122 110.711 116.188 108.922 117.757L110.89 120.5C111.359 121.185 111.811 121.439 112.479 121.439H112.731V121.814C112.731 122.734 111.79 123.202 110.69 123.202C109.591 123.202 109.086 122.916 108.363 121.743Z" fill="black"/>
<path d="M122.451 123.097V115.523L117.18 123.239C116.285 123.189 115.408 122.971 114.595 122.597V112.711C114.595 111.34 114.937 111.34 117.23 111.34V118.966L122.523 111.231C123.411 111.28 124.282 111.501 125.087 111.881V121.726C125.087 123.097 124.761 123.097 122.451 123.097Z" fill="black"/>
<path d="M135.364 123.097V115.523L130.093 123.239C129.198 123.189 128.322 122.971 127.508 122.597V112.711C127.508 111.34 127.851 111.34 130.144 111.34V118.966L135.436 111.231C136.325 111.28 137.196 111.501 138 111.881V121.726C138 123.097 137.674 123.097 135.364 123.097ZM129.873 108.141C129.873 107.39 130.36 107.131 131.157 107.131C131.157 108.231 132.077 108.717 132.979 108.717C133.881 108.717 134.803 108.231 134.803 107.131C135.556 107.131 136.085 107.382 136.085 108.141C136.085 109.528 134.894 110.612 132.979 110.612C131.064 110.612 129.873 109.536 129.873 108.141Z" fill="black"/>
<path d="M24.537 141.415C23.1363 141.415 22.1592 141.039 22.1592 140.018V139.565C22.8479 139.902 23.6045 140.077 24.3713 140.078C25.6195 140.078 26.3576 139.515 26.3576 138.634C26.3576 137.568 25.275 137.297 23.5335 137.297C23.4832 136.894 23.5404 136.485 23.6992 136.111C25.5216 136.021 26.5232 135.172 26.5232 134.081C26.5232 133.24 25.8455 132.7 24.8081 132.7C23.6634 132.7 23.061 133.511 23.061 134.142V134.502H22.611C22.5038 134.506 22.3969 134.488 22.2972 134.448C22.1975 134.409 22.1071 134.349 22.032 134.273C21.9568 134.196 21.8985 134.105 21.8608 134.005C21.823 133.905 21.8067 133.798 21.8128 133.691C21.8128 132.174 23.4375 131.438 24.9135 131.438C26.8395 131.438 27.9992 132.506 27.9992 133.948C27.9992 135.135 27.201 136.083 25.9509 136.563C27.1106 136.879 27.8034 137.555 27.8034 138.711C27.8034 140.469 26.2672 141.415 24.537 141.415Z" fill="black"/>
<path d="M36.5468 141.265L35.7712 139.16H31.3243C31.0833 139.868 30.8743 140.574 30.6635 141.265H29.082C30.0089 138.43 31.1565 135.672 32.5141 133.015C32.7401 132.565 32.8003 132.219 32.7024 131.934C33.1933 131.651 33.7456 131.49 34.3121 131.466L38.1358 141.084V141.272L36.5468 141.265ZM33.687 133.466C32.9731 134.909 32.3353 136.389 31.7761 137.898H35.3287L33.687 133.466Z" fill="black"/>
<path d="M46.5248 141.325V134.003C46.5248 133.237 46.1953 132.906 45.382 132.906H41.3493V141.261H39.9788V132.305C39.9788 131.583 40.2197 131.583 41.3493 131.583H45.6079C47.3024 131.583 47.8803 132.17 47.8803 133.822V140.6C47.8803 141.325 47.6845 141.325 46.5248 141.325Z" fill="black"/>
<path d="M54.5772 141.415C51.9132 141.415 50.0173 139.115 50.0173 136.141C50.0173 133.167 51.868 131.436 54.5772 131.436C57.3165 131.436 59.169 133.18 59.169 136.141C59.169 139.102 57.2713 141.415 54.5772 141.415ZM54.5772 132.7C52.6945 132.7 51.4783 133.991 51.4783 136.141C51.4783 138.454 52.7416 140.108 54.5772 140.108C56.4448 140.108 57.7231 138.529 57.7231 136.141C57.7231 133.931 56.49 132.7 54.5772 132.7V132.7Z" fill="black"/>
<path d="M64.1989 141.265H63.7771C62.1072 141.265 61.309 140.589 61.309 138.769V132.504C61.309 131.586 61.4972 131.586 62.6626 131.586H64.3043C66.0194 131.586 67.7647 132.219 67.7647 134.066C67.7647 135.268 67.1189 136.021 66.0947 136.426C67.1038 136.712 67.7891 137.298 67.7891 138.514C67.791 140.363 65.9855 141.265 64.1989 141.265ZM64.1236 132.816H62.6626V135.972H63.747C65.4414 135.972 66.3056 135.339 66.3056 134.303C66.3018 133.195 65.2776 132.82 64.1198 132.82L64.1236 132.816ZM63.9353 137.084H62.6701V138.743C62.6701 139.569 63.0015 140.007 63.86 140.007H64.1462C65.1383 140.007 66.3583 139.631 66.3583 138.443C66.347 137.313 65.1571 137.087 63.924 137.087L63.9353 137.084Z" fill="black"/>
<path d="M75.8583 141.265H72.2172C70.5228 141.265 69.9448 140.679 69.9448 139.025V132.309C69.9448 131.586 70.1557 131.586 71.2985 131.586H75.2521C75.7623 131.586 75.7623 132.024 75.7623 132.901H71.2985V135.966H74.9565V137.198H71.2985V138.865C71.2985 139.631 71.6298 139.964 72.4431 139.964H75.8583V141.265Z" fill="black"/>
<path d="M96.3928 140.604C96.3928 141.325 96.2046 141.325 95.0392 141.325V137.222H89.9616V141.264H88.5911V132.253C88.5911 131.53 88.832 131.53 89.9616 131.53V135.946H95.0336V131.586H96.3928V140.604Z" fill="black"/>
<path d="M105.569 141.325V133.815L100.226 141.403C99.7597 141.368 99.3083 141.224 98.9081 140.983V132.253C98.9081 131.53 99.1491 131.53 100.264 131.53V139.013L105.618 131.481C106.082 131.513 106.531 131.658 106.926 131.904V140.604C106.923 141.325 106.727 141.325 105.569 141.325Z" fill="black"/>
<path d="M114.09 140.288L111.968 137.268H110.838V141.265H109.468V132.253C109.468 131.53 109.709 131.53 110.838 131.53V135.995H111.801C114.615 135.995 113.186 131.455 116.031 131.455C116.679 131.455 117.038 131.71 117.038 132.373V132.658H116.797C114.69 132.658 115.413 135.814 113.352 136.911L115.263 139.464C115.73 140.082 116.204 140.215 116.812 140.215H117.053V140.486C117.053 141.146 116.407 141.424 115.865 141.424C115.231 141.415 114.779 141.28 114.09 140.288Z" fill="black"/>
<path d="M24.5073 141.441C23.1084 141.441 22.1313 141.066 22.1313 140.044V139.594C22.8199 139.928 23.5756 140.103 24.3416 140.104C25.5917 140.104 26.3278 139.541 26.3278 138.662C26.3278 137.596 25.2453 137.326 23.5151 137.326C23.4648 136.923 23.5219 136.513 23.6808 136.139C25.5013 136.049 26.5048 135.2 26.5048 134.112C26.5048 133.27 25.827 132.73 24.7897 132.73C23.6469 132.73 23.0444 133.541 23.0444 134.172V134.532H22.5926C22.4854 134.536 22.3785 134.518 22.2788 134.478C22.179 134.439 22.0887 134.379 22.0136 134.303C21.9384 134.226 21.8801 134.135 21.8423 134.035C21.8046 133.935 21.7882 133.828 21.7943 133.721C21.7943 132.204 23.4191 131.468 24.8932 131.468C26.8192 131.468 27.977 132.534 27.977 133.976C27.977 135.163 27.1788 136.109 25.9306 136.59C27.0903 136.905 27.7812 137.581 27.7812 138.738C27.7718 140.495 26.2374 141.441 24.5073 141.441Z" fill="black"/>
<path d="M85.5506 140.211V133.828C85.5506 132.176 84.9632 131.59 83.28 131.59H79.2756C78.7785 131.59 78.7786 132.026 78.7786 132.904H79.622L78.5451 138.627L78.2514 140.191L76.8224 140.446C76.8198 141.052 76.9132 141.655 77.0992 142.231C77.2379 142.7 77.4319 143.15 77.6772 143.572C77.8655 143.842 78.0067 143.994 78.2627 143.994C78.5218 143.97 78.7757 143.907 79.0158 143.807C78.7443 142.981 78.5551 142.131 78.451 141.268H84.9707C84.8665 142.131 84.6773 142.981 84.4059 143.807C84.6459 143.907 84.8998 143.97 85.159 143.994C85.415 143.994 85.5656 143.842 85.7464 143.572C86.0024 143.178 86.3319 142.344 86.5992 141.259C86.65 141.071 86.6971 140.855 86.7404 140.643V140.455L85.5506 140.211ZM84.1969 139.941H79.8667L80.0682 138.627L80.9549 132.91H83.0635C83.875 132.91 84.2063 133.24 84.2063 134.008L84.1969 139.941Z" fill="black"/>
<path d="M124.914 74.6922V101.453H88.6382C91.3022 86.1089 104.701 74.4387 120.832 74.4387C122.196 74.4386 123.56 74.5233 124.914 74.6922V74.6922Z" fill="black"/>
<path d="M99.5216 90.046L97.8611 92.0962H101.184L99.5216 90.046Z" fill="white"/>
<path d="M102.839 90.046L101.179 92.0962H104.502L102.839 90.046Z" fill="white"/>
<path d="M106.196 90.046L104.533 92.0962H107.856L106.196 90.046Z" fill="white"/>
<path d="M110.863 80.9385L109.203 82.9887H112.525L110.863 80.9385Z" fill="white"/>
<path d="M114.218 80.9385L112.557 82.9887H115.88L114.218 80.9385Z" fill="white"/>
<path d="M113.305 85.5194L111.643 87.5715H114.965L113.305 85.5194Z" fill="white"/>
<path d="M116.622 85.5194L114.962 87.5715H118.285L116.622 85.5194Z" fill="white"/>
<path d="M119.977 85.5194L118.317 87.5715H121.64L119.977 85.5194Z" fill="white"/>
<path d="M116.622 90.046L114.962 92.0962H118.285L116.622 90.046Z" fill="white"/>
<path d="M119.977 90.046L118.317 92.0962H121.64L119.977 90.046Z" fill="white"/>
<path d="M96.263 95.2502L94.6006 97.3003H97.9235L96.263 95.2502Z" fill="white"/>
<path d="M109.513 90.046L107.851 92.0962H111.174L109.513 90.046Z" fill="white"/>
<path d="M102.749 95.2502L101.087 97.3003H104.41L102.749 95.2502Z" fill="white"/>
<path d="M106.066 95.2502L104.404 97.3003H107.726L106.066 95.2502Z" fill="white"/>
<path d="M109.421 95.2502L107.761 97.3003H111.084L109.421 95.2502Z" fill="white"/>
<path d="M112.738 95.2502L111.078 97.3003H114.401L112.738 95.2502Z" fill="white"/>
<path d="M119.977 80.9385L118.317 82.9887H121.64L119.977 80.9385Z" fill="white"/>
<path d="M106.486 85.5194L104.826 87.5715H108.149L106.486 85.5194Z" fill="white"/>
<path d="M119.977 95.2502L118.317 97.3003H121.64L119.977 95.2502Z" fill="white"/>
<path d="M124.838 11.1069C124.824 11.0205 124.809 10.9341 124.793 10.8478C124.639 10.1037 124.337 9.39777 123.906 8.77133C123.88 8.7319 123.851 8.69248 123.823 8.65493C123.767 8.57607 123.706 8.4991 123.635 8.42212C123.618 8.40147 123.601 8.37894 123.582 8.35829C123.464 8.21523 123.338 8.0786 123.206 7.94901C122.912 7.6554 122.587 7.39476 122.236 7.17174C122.102 7.08538 121.972 7.00841 121.844 6.9427C121.226 6.60797 120.549 6.39267 119.851 6.30812C119.663 6.28294 119.475 6.2679 119.286 6.26306H119.143C117.611 6.26555 116.142 6.87397 115.059 7.95486C113.976 9.03575 113.368 10.5008 113.367 12.0287V26.9694C113.367 27.0051 113.367 27.0426 113.367 27.0783C113.367 27.2473 113.38 27.4144 113.397 27.5796C113.453 28.095 113.58 28.6004 113.773 29.0815C113.813 29.1829 113.854 29.2805 113.903 29.38C113.921 29.4243 113.941 29.4675 113.964 29.5096C114.001 29.5866 114.041 29.6617 114.08 29.7349C114.347 30.2167 114.681 30.6591 115.071 31.0491V31.0491C115.138 31.1129 115.238 31.2106 115.342 31.2988C115.357 31.2988 115.37 31.3232 115.385 31.3326C115.794 31.6864 116.253 31.9792 116.746 32.2018C116.844 32.2469 116.934 32.2882 117.045 32.3276C117.07 32.337 117.096 32.3483 117.123 32.3558C117.245 32.4027 117.373 32.4459 117.499 32.4835C118.009 32.6348 118.537 32.7144 119.069 32.72H119.143C119.301 32.72 119.461 32.72 119.619 32.6994C119.74 32.69 119.86 32.6768 119.979 32.6581C120.244 32.6222 120.506 32.5657 120.762 32.4891C121.691 32.2152 122.536 31.7139 123.221 31.0308C123.906 30.3478 124.409 29.5047 124.683 28.5784C124.76 28.322 124.818 28.0603 124.857 27.7955C124.875 27.6734 124.889 27.5514 124.898 27.42C124.911 27.2623 124.919 27.1027 124.919 26.945V12.0268C124.917 11.7185 124.89 11.4109 124.838 11.1069V11.1069ZM114.86 20.434L123.401 11.9067C123.401 11.948 123.401 11.9874 123.401 12.0268V14.2122L114.858 22.7414L114.86 20.434ZM123.315 11.1501C123.328 11.212 123.339 11.2721 123.349 11.3378L123.36 11.4129L114.865 19.9008V17.5972L122.75 9.73634C123.023 10.1694 123.214 10.6485 123.315 11.1501V11.1501ZM122.157 9.01164C122.266 9.11878 122.368 9.23292 122.462 9.35334L122.477 9.37023L122.52 9.42656L114.865 17.0678V14.7623L121.295 8.34515C121.34 8.37143 121.387 8.40147 121.438 8.43527C121.697 8.6013 121.938 8.79452 122.157 9.01164V9.01164ZM120.944 8.16304L114.865 14.2309V12.0268C114.865 11.9911 114.865 11.9574 114.865 11.9217L119.03 7.76502H119.235C119.377 7.76783 119.518 7.77848 119.659 7.79693C120.104 7.84929 120.538 7.97291 120.944 8.16304ZM118.448 7.81946L114.922 11.3378C115.067 10.4576 115.486 9.64491 116.118 9.0139C116.751 8.38289 117.565 7.9652 118.448 7.81946ZM123.409 26.9694C123.409 27.1774 123.393 27.3852 123.362 27.5908C123.334 27.7858 123.292 27.9785 123.236 28.1672C123.17 28.3916 123.085 28.6101 122.983 28.8206L120.993 30.8088C120.78 30.9129 120.557 30.9983 120.329 31.0641C120.144 31.1203 119.955 31.1617 119.764 31.188C119.291 31.2599 118.809 31.2497 118.339 31.158L123.422 26.0889L123.409 26.9694ZM123.409 25.5594L117.906 31.0528C117.8 31.0228 117.693 30.9853 117.586 30.944C117.157 30.7773 116.758 30.5413 116.405 30.2455L123.409 23.2521V25.5594ZM123.409 22.7207L116.125 29.994C115.789 29.6591 115.511 29.2716 115.302 28.8468C115.264 28.7717 115.229 28.6948 115.197 28.6159L123.409 20.4152V22.7207ZM123.409 19.8839L115.055 28.2254C114.928 27.8189 114.865 27.3952 114.867 26.9694V26.1095L123.409 17.5765V19.8839ZM114.865 25.5782V23.2802L123.409 14.7416V17.0452L114.865 25.5782Z" fill="black"/>
<path d="M102.449 8.04486C102.327 7.96976 102.201 7.9003 102.073 7.83834C101.542 7.57662 100.968 7.41313 100.379 7.35584C100.219 7.33923 100.059 7.33109 99.8985 7.33143H99.8156C99.6898 7.33166 99.5641 7.33855 99.4391 7.35208C98.7797 7.41023 98.1391 7.60188 97.5564 7.91532C97.4265 7.98478 97.3023 8.06176 97.1799 8.14249C96.5015 8.58969 95.9449 9.19761 95.5599 9.91185C95.1748 10.6261 94.9733 11.4244 94.9734 12.2353V28.8826C94.9733 29.6938 95.1748 30.4923 95.5599 31.2069C95.9449 31.9214 96.5015 32.5297 97.1799 32.9773C97.3004 33.0581 97.4246 33.1332 97.5564 33.2026C98.1391 33.5161 98.7797 33.7077 99.4391 33.7659C99.5641 33.7794 99.6898 33.7863 99.8156 33.7865H99.8985C100.059 33.7868 100.219 33.7787 100.379 33.7621C100.633 33.7377 100.884 33.6937 101.132 33.6307C101.457 33.5468 101.772 33.4298 102.073 33.2815C102.201 33.2176 102.327 33.1482 102.449 33.075C103.173 32.6366 103.771 32.02 104.186 31.2845C104.601 30.5489 104.819 29.7192 104.82 28.8751V12.2428C104.82 11.399 104.601 10.5694 104.186 9.83411C103.771 9.09881 103.173 8.48259 102.449 8.04486V8.04486ZM96.4833 28.8845V12.2428C96.4821 11.496 96.729 10.7697 97.1855 10.1776V30.9553C96.729 30.3632 96.4821 29.637 96.4833 28.8901V28.8845ZM97.5602 31.3646V9.76272C98.0775 9.27356 98.7363 8.95952 99.4429 8.8653V32.2676C98.7363 32.1734 98.0775 31.8594 97.5602 31.3702V31.3646ZM99.9003 32.2921H99.8175V8.824H99.9003C100.061 8.82384 100.221 8.83513 100.38 8.85779V32.2658C100.221 32.2859 100.061 32.2947 99.9003 32.2921V32.2921ZM101.133 32.0611V9.06431C101.475 9.19673 101.793 9.38311 102.075 9.61628V31.5186C101.792 31.7505 101.475 31.9362 101.133 32.0686V32.0611ZM103.316 28.8826C103.316 29.7185 103.008 30.5254 102.449 31.1487V9.97863C103.009 10.6006 103.317 11.4073 103.316 12.2428V28.8826Z" fill="black"/>
<path d="M86.0873 7.33154C85.0396 7.33452 84.0357 7.75085 83.2949 8.4896C82.5541 9.22834 82.1366 10.2294 82.1337 11.2742V26.0009C82.1337 27.0465 82.5502 28.0493 83.2917 28.7887C84.0331 29.5281 85.0387 29.9435 86.0873 29.9435C87.1358 29.9435 88.1415 29.5281 88.8829 28.7887C89.6244 28.0493 90.0409 27.0465 90.0409 26.0009V11.2817C90.0399 10.2356 89.6233 9.23262 88.8823 8.49226C88.1413 7.75189 87.1362 7.33452 86.0873 7.33154V7.33154ZM83.6398 26.0084V11.2817C83.6395 10.8872 83.7351 10.4986 83.9184 10.1491C84.1017 9.79956 84.3672 9.49953 84.6922 9.2747V28.0153C84.3662 27.7911 84.0996 27.4914 83.9153 27.1418C83.731 26.7922 83.6345 26.4033 83.6342 26.0084H83.6398ZM85.0688 28.2313V9.05879C85.3898 8.91078 85.7392 8.83391 86.0929 8.8335C86.4517 8.83349 86.8061 8.91301 87.1303 9.0663V28.2162C86.8081 28.3683 86.456 28.4472 86.0995 28.4472C85.743 28.4472 85.391 28.3683 85.0688 28.2162V28.2313ZM88.5461 26.0084C88.5463 26.4001 88.452 26.786 88.2711 27.1337C88.0902 27.4814 87.8281 27.7806 87.5068 28.006V9.28409C87.8281 9.50946 88.0902 9.80863 88.2711 10.1563C88.452 10.504 88.5463 10.89 88.5461 11.2817V26.0084Z" fill="black"/>
<path d="M109.09 0.0714111C107.557 0.0738975 106.089 0.682582 105.006 1.76388C103.923 2.84517 103.314 4.31074 103.314 5.83892V20.7778C103.314 22.3054 103.922 23.7705 105.006 24.8507C106.089 25.9309 107.558 26.5378 109.09 26.5378C110.622 26.5378 112.091 25.9309 113.174 24.8507C114.257 23.7705 114.866 22.3054 114.866 20.7778V5.83892C114.865 4.31074 114.257 2.84517 113.174 1.76388C112.091 0.682582 110.622 0.0738975 109.09 0.0714111V0.0714111ZM113.362 13.1009V16.4277H104.818V12.1866L105.56 13.1028L107.298 10.9606L109.033 13.1028L110.773 10.9568H104.818V6.54484L105.695 7.63L107.429 5.48972L109.163 7.63L110.89 5.49159L112.622 7.63L113.356 6.7232V10.9568H111.616L113.362 13.1009ZM112.019 2.74677H106.151C106.943 1.99374 107.995 1.57363 109.089 1.57363C110.183 1.57363 111.235 1.99374 112.027 2.74677H112.019ZM105.899 3.00398L107.427 4.88142L109.161 2.74114L110.89 4.89269L112.349 3.09222C112.919 3.76702 113.265 4.60244 113.337 5.48221H104.833C104.91 4.56283 105.284 3.69313 105.899 3.00398V3.00398ZM109.099 25.0414C107.966 25.0394 106.88 24.5892 106.079 23.7895C105.278 22.9899 104.828 21.906 104.828 20.7759V17.2819L105.874 18.5736L107.569 16.4915L109.263 18.5736L110.999 16.4315L112.735 18.5736L113.382 17.7757V20.7796C113.383 21.1603 113.332 21.5392 113.23 21.9061H107.397L109.137 24.0539L110.869 21.9136L112.262 23.6333C111.863 24.0776 111.373 24.4328 110.827 24.6758C110.28 24.9188 109.688 25.044 109.09 25.0433L109.099 25.0414Z" fill="black"/>
<path d="M108.981 8.21936H105.507L107.247 10.3653L108.984 8.22312L110.72 10.3653L112.46 8.21936H108.986H108.981Z" fill="black"/>
<path d="M108.981 13.6923H105.507L107.247 15.8382L108.984 13.696L110.72 15.8382L112.46 13.6923H108.986H108.981Z" fill="black"/>
<path d="M109.172 19.1668L110.91 21.3127L112.65 19.1649H109.176H109.171H105.697L107.437 21.3127L109.172 19.1668Z" fill="black"/>
<path d="M92.5 0H92.4398C92.274 0.000155425 92.1085 0.0127069 91.9446 0.0375489C91.3469 0.118884 90.7764 0.33809 90.2785 0.677757C90.173 0.747528 90.0711 0.822727 89.9735 0.903051C89.5473 1.25676 89.1993 1.69464 88.9512 2.1891C88.8905 2.31128 88.8364 2.43662 88.7893 2.56459C88.6218 3.00937 88.5363 3.48068 88.537 3.95578V21.6657C88.5371 21.8447 88.5497 22.0235 88.5746 22.2008C88.6905 23.0564 89.0849 23.8504 89.6971 24.4609C90.3093 25.0714 91.1055 25.4646 91.9635 25.5802C92.1412 25.6051 92.3205 25.6176 92.5 25.6177H92.5339C93.1753 25.6136 93.8058 25.4518 94.3695 25.1465C94.4844 25.0861 94.5957 25.019 94.7028 24.9456C95.1596 24.6402 95.5476 24.2431 95.8418 23.7797C95.9115 23.6697 95.9743 23.5556 96.03 23.438C96.3093 22.8888 96.4544 22.2815 96.4536 21.6657V3.95202C96.4532 2.90566 96.0368 1.90215 95.2957 1.16138C94.5546 0.420609 93.5493 0.00298098 92.5 0V0ZM92.5 24.1158C91.8518 24.1128 91.231 23.8547 90.7727 23.3976C90.3143 22.9406 90.0555 22.3215 90.0525 21.6751V20.8378L93.2343 24.0144C92.9961 24.0854 92.7485 24.1196 92.5 24.1158V24.1158ZM93.6052 23.8511L90.045 20.2971V17.9916L94.7348 22.6739C94.502 23.1802 94.1037 23.5926 93.6052 23.8435V23.8511ZM94.9532 21.6657C94.9538 21.8735 94.9272 22.0806 94.8741 22.2815L90.045 17.4602V15.1547L94.9532 20.0549V21.6657ZM94.9532 19.5217L90.045 14.6234V12.3179L94.9532 17.2199V19.5217ZM94.9532 16.6867L90.045 11.7866V9.48297L94.9532 14.3812V16.6867ZM94.9532 13.848L90.045 8.95166V6.64615L94.9532 11.5444V13.848ZM94.9532 11.0112L90.045 6.11484V3.95202C90.045 3.90508 90.045 3.86003 90.045 3.81497L94.9532 8.71134V11.0112ZM94.9532 8.18003L90.1184 3.35312C90.2593 2.80033 90.5888 2.31373 91.0504 1.97695L94.9532 5.87452V8.18003ZM94.9532 3.95202V5.34133L91.3761 1.77419C91.7229 1.59344 92.1087 1.49998 92.5 1.50196C92.9482 1.50197 93.3878 1.62471 93.7708 1.85679V1.85679L94.5917 2.67724C94.8283 3.06057 94.9534 3.5019 94.9532 3.95202V3.95202Z" fill="black"/>
<path d="M80.8891 11.7491C81.2634 11.7491 81.5668 11.4465 81.5668 11.0732C81.5668 10.6999 81.2634 10.3973 80.8891 10.3973C80.5148 10.3973 80.2113 10.6999 80.2113 11.0732C80.2113 11.4465 80.5148 11.7491 80.8891 11.7491Z" fill="black"/>
<path d="M80.8891 7.24324C81.2634 7.24324 81.5668 6.94064 81.5668 6.56736C81.5668 6.19408 81.2634 5.89148 80.8891 5.89148C80.5148 5.89148 80.2113 6.19408 80.2113 6.56736C80.2113 6.94064 80.5148 7.24324 80.8891 7.24324Z" fill="black"/>
<path d="M78.6336 9.49617C79.0079 9.49617 79.3113 9.19357 79.3113 8.82029C79.3113 8.44701 79.0079 8.14441 78.6336 8.14441C78.2593 8.14441 77.9558 8.44701 77.9558 8.82029C77.9558 9.19357 78.2593 9.49617 78.6336 9.49617Z" fill="black"/>
<path d="M78.6336 4.99019C79.0079 4.99019 79.3113 4.68759 79.3113 4.31431C79.3113 3.94103 79.0079 3.63843 78.6336 3.63843C78.2593 3.63843 77.9558 3.94103 77.9558 4.31431C77.9558 4.68759 78.2593 4.99019 78.6336 4.99019Z" fill="black"/>
<path d="M80.8891 2.73726C81.2634 2.73726 81.5668 2.43466 81.5668 2.06138C81.5668 1.6881 81.2634 1.3855 80.8891 1.3855C80.5148 1.3855 80.2113 1.6881 80.2113 2.06138C80.2113 2.43466 80.5148 2.73726 80.8891 2.73726Z" fill="black"/>
<path d="M78.6336 14.0001C79.0079 14.0001 79.3113 13.6975 79.3113 13.3242C79.3113 12.9509 79.0079 12.6483 78.6336 12.6483C78.2593 12.6483 77.9558 12.9509 77.9558 13.3242C77.9558 13.6975 78.2593 14.0001 78.6336 14.0001Z" fill="black"/>
<path d="M79.7014 16.2982C78.6538 16.2953 77.6499 15.8789 76.9091 15.1402C76.1683 14.4014 75.7508 13.4003 75.7478 12.3556V4.0235C75.7478 2.9766 76.1648 1.97258 76.9072 1.23232C77.6495 0.49205 78.6563 0.0761719 79.7061 0.0761719C80.7559 0.0761719 81.7628 0.49205 82.5051 1.23232C83.2474 1.97258 83.6645 2.9766 83.6645 4.0235V12.3462C83.664 13.3942 83.2463 14.3991 82.5032 15.1402C81.7601 15.8812 80.7523 16.2977 79.7014 16.2982V16.2982ZM79.7014 1.57343C79.0516 1.57641 78.4294 1.8358 77.9708 2.2949C77.5122 2.754 77.2544 3.37548 77.2539 4.0235V12.3462C77.2539 12.9953 77.5125 13.6177 77.9727 14.0767C78.433 14.5356 79.0572 14.7935 79.708 14.7935C80.3589 14.7935 80.9831 14.5356 81.4433 14.0767C81.9035 13.6177 82.1621 12.9953 82.1621 12.3462V4.0235C82.1618 3.70151 82.098 3.38271 81.9742 3.08532C81.8504 2.78793 81.6691 2.51777 81.4406 2.29026C81.2121 2.06275 80.9409 1.88235 80.6425 1.75936C80.3441 1.63636 80.0243 1.57319 79.7014 1.57343V1.57343Z" fill="black"/>
</svg>
